<?xml version="1.0" encoding="UTF-8" standalone="no" ?>
<!DOCTYPE svg PUBLIC "-//W3C//DTD SVG 1.1//EN" "http://www.w3.org/Graphics/SVG/1.1/DTD/svg11.dtd">
<svg xmlns="http://www.w3.org/2000/svg" xmlns:xlink="http://www.w3.org/1999/xlink" version="1.1" width="770" height="200" viewBox="0 0 770 200" xml:space="preserve">
<desc>Created with Fabric.js 5.2.4</desc>
<defs>
</defs>
<rect x="0" y="0" width="100%" height="100%" fill="transparent"></rect>
<g transform="matrix(1 0 0 1 385 100)" id="cc1f2b62-7704-4ae1-b350-fc3f5d95ed8b"  >
<rect style="stroke: none; stroke-width: 1; stroke-dasharray: none; stroke-linecap: butt; stroke-dashoffset: 0; stroke-linejoin: miter; stroke-miterlimit: 4; fill: rgb(255,255,255); fill-rule: nonzero; opacity: 1; visibility: hidden;" vector-effect="non-scaling-stroke"  x="-385" y="-100" rx="0" ry="0" width="770" height="200" />
</g>
<g transform="matrix(Infinity NaN NaN Infinity 0 0)" id="35bd98de-fe97-44b7-aa08-9326300c019b"  >
</g>
<g transform="matrix(0.14 0 0 0.14 108.37 100)"  >
<g style="" vector-effect="non-scaling-stroke"   >
		<g transform="matrix(21.35 0 0 21.35 0 0)"  >
<path style="stroke: none; stroke-width: 1; stroke-dasharray: none; stroke-linecap: butt; stroke-dashoffset: 0; stroke-linejoin: miter; stroke-miterlimit: 4; fill: rgb(1,12,128); fill-rule: nonzero; opacity: 1;" vector-effect="non-scaling-stroke"  transform=" translate(-36.68, 18.2)" d="M 6.7 0 L 6.7 0 Q 4.1 0 2.85 -1.55 Q 1.6 -3.1 1.6 -5.7 L 1.6 -5.7 L 1.6 -29 Q 1.6 -32.8 3.68 -34.6 Q 5.75 -36.4 8.65 -36.4 L 8.65 -36.4 Q 11.4 -36.4 13.33 -34.6 Q 15.25 -32.8 16.15 -28.9 L 16.15 -28.9 L 20.05 -11.95 L 21.35 -11.95 L 25.25 -28.9 Q 26.15 -32.8 28.13 -34.6 Q 30.1 -36.4 32.85 -36.4 L 32.85 -36.4 Q 35.75 -36.4 37.83 -34.6 Q 39.9 -32.8 39.9 -29 L 39.9 -29 L 39.9 -5.7 Q 39.9 -3.1 38.63 -1.55 Q 37.35 0 34.75 0 L 34.75 0 Q 32.25 0 30.9 -1.55 Q 29.55 -3.1 29.55 -5.7 L 29.55 -5.7 L 29.55 -19.15 Q 29.55 -19.65 29.43 -20.08 Q 29.3 -20.5 28.75 -20.5 L 28.75 -20.5 Q 28.3 -20.5 28.1 -20.08 Q 27.9 -19.65 27.8 -19.15 L 27.8 -19.15 L 25.9 -6.55 Q 25.55 -4.5 25.08 -3.03 Q 24.6 -1.55 23.6 -0.78 Q 22.6 0 20.7 0 L 20.7 0 Q 18.85 0 17.82 -0.78 Q 16.8 -1.55 16.32 -3.03 Q 15.85 -4.5 15.55 -6.55 L 15.55 -6.55 L 13.6 -19.15 Q 13.55 -19.65 13.35 -20.08 Q 13.15 -20.5 12.65 -20.5 L 12.65 -20.5 Q 12.15 -20.5 12 -20.08 Q 11.85 -19.65 11.85 -19.15 L 11.85 -19.15 L 11.85 -5.7 Q 11.85 -3.1 10.53 -1.55 Q 9.2 0 6.7 0 Z M 64.25 -0.1 L 55.3 -0.1 Q 52.85 -0.1 50.62 -0.55 Q 48.4 -1 46.72 -2.27 Q 45.05 -3.55 44.07 -5.98 Q 43.1 -8.4 43.1 -12.35 L 43.1 -12.35 Q 43.1 -15.9 44.05 -18.45 Q 45 -21 46.32 -22.5 Q 47.65 -24 48.75 -24.35 L 48.75 -24.35 L 48.5 -25.3 L 47.65 -25.3 Q 45.35 -25.3 44.02 -26.78 Q 42.7 -28.25 42.65 -30.8 L 42.65 -30.8 Q 42.6 -33.3 43.97 -34.8 Q 45.35 -36.3 47.65 -36.3 L 47.65 -36.3 L 65.6 -36.3 Q 70.95 -36.3 70.95 -31.3 L 70.95 -31.3 Q 70.95 -29.05 69.65 -27.7 Q 68.35 -26.35 65.6 -26.35 L 65.6 -26.35 L 55.25 -26.35 Q 53.4 -26.35 53.4 -24.2 L 53.4 -24.2 L 53.4 -20.45 Q 55.9 -21 58.62 -21.75 Q 61.35 -22.5 63.8 -22.5 L 63.8 -22.5 Q 66.15 -22.5 67.32 -21.48 Q 68.5 -20.45 68.5 -18.7 L 68.5 -18.7 Q 68.5 -16.9 67.32 -15.88 Q 66.15 -14.85 63.8 -14.8 L 63.8 -14.8 Q 61.35 -14.75 58.6 -15.5 Q 55.85 -16.25 53.35 -16.8 L 53.35 -16.8 L 53.35 -10.25 Q 53.35 -9.3 53.87 -8.93 Q 54.4 -8.55 55.55 -9.2 L 55.55 -9.2 Q 58.05 -10.65 60.45 -11.53 Q 62.85 -12.4 65.15 -12.4 L 65.15 -12.4 Q 68.4 -12.4 70.07 -10.7 Q 71.75 -9 71.75 -6.25 L 71.75 -6.25 Q 71.75 -3.3 69.97 -1.7 Q 68.2 -0.1 64.25 -0.1 L 64.25 -0.1 Z" stroke-linecap="round" />
</g>
		<g transform="matrix(3.79 0 0 3.79 0 0)"  >
<rect style="stroke: none; stroke-width: 1; stroke-dasharray: none; stroke-linecap: butt; stroke-dashoffset: 0; stroke-linejoin: miter; stroke-miterlimit: 4; fill: none; fill-rule: nonzero; opacity: 1;" vector-effect="non-scaling-stroke"  x="-197.76" y="-102.61531004989308" rx="0" ry="0" width="395.52" height="205.23062009978617" />
</g>
</g>
</g>
<g transform="matrix(1.53 0 0 1.53 504.58 100)" style="" id="58f05dbf-6286-4335-8187-b84cda6239e8"  >
		<text xml:space="preserve" font-family="Raleway" font-size="98" font-style="normal" font-weight="900" style="stroke: none; stroke-width: 1; stroke-dasharray: none; stroke-linecap: butt; stroke-dashoffset: 0; stroke-linejoin: miter; stroke-miterlimit: 4; fill: rgb(255,255,255); fill-rule: nonzero; opacity: 1; white-space: pre;" ><tspan x="-187.03" y="30.79" >S</tspan><tspan x="-123.14" y="30.79" >O</tspan><tspan x="-44.74" y="30.79" >C</tspan><tspan x="26.41" y="30.79" >I</tspan><tspan x="60.91" y="30.79" >A</tspan><tspan x="129.7" y="30.79" >L</tspan></text>
</g>
</svg>